<?xml version="1.0" encoding="utf-8"?>
<!-- Generator: Adobe Illustrator 19.1.1, SVG Export Plug-In . SVG Version: 6.00 Build 0)  -->
<svg version="1.1" id="Layer_1" xmlns="http://www.w3.org/2000/svg" xmlns:xlink="http://www.w3.org/1999/xlink" x="0px" y="0px"
	 viewBox="-130 0 400 500" xml:space="preserve">
<path style="fill-rule:evenodd;clip-rule:evenodd;fill:#F79737;" d="M52.7,185.3c14.9,0,27-12.1,27-27c0-14.9-12.1-27-27-27
	c-14.9,0-27,12.1-27,27C25.7,173.2,37.8,185.3,52.7,185.3L52.7,185.3z M52.7,175.9C43,175.9,35,168,35,158.3
	c0-9.7,7.9-17.7,17.7-17.7c9.7,0,17.7,7.9,17.7,17.7C70.4,168,62.5,175.9,52.7,175.9z"/>
<path style="fill-rule:evenodd;clip-rule:evenodd;fill:#6EBD44;" d="M106.4,163c25.6,0,46.4-20.8,46.4-46.4
	c0-25.6-20.8-46.4-46.4-46.4c-25.6,0-46.4,20.8-46.4,46.4c0,4.1,0.5,8.2,1.6,12c12.4,3.7,21.5,15,22,28.4
	C90.4,160.8,98.2,163,106.4,163L106.4,163z M106.4,146.9c-16.7,0-30.3-13.6-30.3-30.3c0-16.7,13.6-30.3,30.3-30.3
	c16.7,0,30.3,13.6,30.3,30.3C136.7,133.3,123.2,146.9,106.4,146.9z"/>
<path style="fill-rule:evenodd;clip-rule:evenodd;fill:#498ECC;" d="M109.5,65.6c0.6-3.4,1-6.8,1-10.3C110.5,24.7,85.7,0,55.2,0
	C24.7,0,0,24.7,0,55.2c0,30,24,54.4,53.8,55.2c0.8-7,3.1-13.6,6.5-19.5c-1.7,0.2-3.4,0.4-5.1,0.4c-19.9,0-36.1-16.1-36.1-36.1
	s16.1-36.1,36.1-36.1s36.1,16.1,36.1,36.1c0,4.4-0.8,8.6-2.2,12.6c4.9-1.6,10.2-2.4,15.6-2.4C106.3,65.3,107.9,65.4,109.5,65.6z"/>
<path style="fill-rule:evenodd;clip-rule:evenodd;fill:#EE3B24;" d="M138.7,71.3c18.2,0,33-14.8,33-33c0-18.2-14.8-33-33-33
	c-13.7,0-25.4,8.3-30.4,20.1c5.1,8.8,8,19,8,29.8c0,2.4-0.1,4.7-0.4,7C121.9,67.9,129.9,71.3,138.7,71.3L138.7,71.3z M138.7,59.9
	c-11.9,0-21.6-9.7-21.6-21.6c0-11.9,9.7-21.6,21.6-21.6c11.9,0,21.6,9.7,21.6,21.6C160.3,50.2,150.7,59.9,138.7,59.9z"/>
</svg>
