<?xml version="1.0" encoding="UTF-8"?>
<!-- Generator: Adobe Illustrator 14.0.0, SVG Export Plug-In . SVG Version: 6.00 Build 43363)  -->
<!DOCTYPE svg PUBLIC "-//W3C//DTD SVG 1.1//EN" "http://www.w3.org/Graphics/SVG/1.1/DTD/svg11.dtd">
<svg version="1.1" xmlns="http://www.w3.org/2000/svg" xmlns:xlink="http://www.w3.org/1999/xlink" x="0px" y="0px" width="681px" height="115.8159px" viewBox="0 0 681 115.8159" enable-background="new 0 0 681 115.8159" xml:space="preserve">
<g id="Layer_1">
	<path fill-rule="evenodd" clip-rule="evenodd" fill="#F89838" d="M34.4287,108.5044c8.4634,0,15.3267-6.8623,15.3267-15.3262   c0-8.4648-6.8633-15.3271-15.3267-15.3271c-8.4648,0-15.3276,6.8623-15.3276,15.3271   C19.1011,101.6421,25.9639,108.5044,34.4287,108.5044L34.4287,108.5044z M34.4277,103.188   c-5.5273,0-10.0093-4.4824-10.0093-10.0107c0-5.5273,4.4819-10.0098,10.0093-10.0098c5.5283,0,10.0103,4.4824,10.0103,10.0098   C44.438,98.7056,39.9561,103.188,34.4277,103.188z"/>
	<path fill-rule="evenodd" clip-rule="evenodd" fill="#6FBE44" d="M64.8984,95.853c14.5215,0,26.2949-11.7734,26.2949-26.2959   c0-14.522-11.7734-26.2949-26.2949-26.2949c-14.5225,0-26.2954,11.7729-26.2954,26.2949c0,2.3516,0.3096,4.6309,0.8887,6.7988   c7.0127,2.1094,12.1802,8.4824,12.4858,16.1064C55.7939,94.6206,60.2021,95.853,64.8984,95.853L64.8984,95.853z M64.8984,86.731   c-9.4854,0-17.1743-7.6885-17.1743-17.1738s7.689-17.1738,17.1743-17.1738c9.4844,0,17.1733,7.6885,17.1733,17.1738   S74.3828,86.731,64.8984,86.731z"/>
	<path fill-rule="evenodd" clip-rule="evenodd" fill="#4990CD" d="M66.6235,40.6255c0.3599-1.9014,0.5513-3.8628,0.5513-5.8687   c0-17.2944-14.0205-31.3149-31.3149-31.3149S4.5449,17.4624,4.5449,34.7568c0,17.0229,13.5835,30.8735,30.5024,31.3052   c0.4785-3.9893,1.7656-7.7314,3.6919-11.0557c-0.9404,0.1333-1.9023,0.2031-2.8794,0.2031   c-11.2954,0-20.4526-9.1572-20.4526-20.4526s9.1572-20.4526,20.4526-20.4526s20.4526,9.1572,20.4526,20.4526   c0,2.5034-0.4507,4.9004-1.2734,7.1167c2.7935-0.8926,5.77-1.3765,8.8594-1.3765C64.8179,40.4971,65.7256,40.542,66.6235,40.6255z"/>
	<path fill-rule="evenodd" clip-rule="evenodd" fill="#EF3B24" d="M83.2163,43.8857c10.3462,0,18.7339-8.3882,18.7339-18.7344   c0-10.3452-8.3877-18.7329-18.7339-18.7329c-7.75,0-14.4023,4.7075-17.2515,11.4194c2.896,4.9702,4.5571,10.752,4.5571,16.9189   c0,1.3374-0.0791,2.6563-0.2324,3.9531C73.6523,41.917,78.2046,43.8857,83.2163,43.8857L83.2163,43.8857z M83.2163,37.3872   c-6.7563,0-12.2349-5.478-12.2349-12.2358c0-6.7568,5.4785-12.2349,12.2349-12.2349c6.7578,0,12.2358,5.478,12.2358,12.2349   C95.4521,31.9092,89.9741,37.3872,83.2163,37.3872z"/>
	<g>
		<path d="M110.519,37.7646h37.6523v9.8984h-12.6328v30.188h-12.3867v-30.188H110.519V37.7646z"/>
		<path d="M150.7417,48.8115h10.418v4.7578c1.002-2.0596,2.0371-3.4771,3.1035-4.252c1.0664-0.7744,2.3828-1.1621,3.9512-1.1621    c1.6406,0,3.4355,0.5107,5.3867,1.5313l-3.4453,7.9302c-1.3125-0.5474-2.3516-0.8208-3.1172-0.8208    c-1.459,0-2.5889,0.6021-3.3906,1.8052c-1.1484,1.6953-1.7227,4.8672-1.7227,9.5156v9.7344h-11.1836V48.8115z"/>
		<path d="M186.5894,58.2183l-10.6367-1.1216c0.4004-1.8594,0.9795-3.3223,1.7363-4.3887c0.7559-1.0664,1.8457-1.9912,3.2676-2.7754    c1.0205-0.5649,2.4238-1.0024,4.2109-1.3125c1.7861-0.3096,3.7188-0.4648,5.7969-0.4648c3.3359,0,6.0156,0.187,8.0391,0.5605    c2.0234,0.374,3.709,1.1533,5.0586,2.3379c0.9473,0.8203,1.6953,1.9824,2.2422,3.4863s0.8203,2.9399,0.8203,4.3071v12.8242    c0,1.3672,0.0859,2.4375,0.2598,3.2129c0.1729,0.7744,0.5508,1.7637,1.1348,2.9668h-10.4453    c-0.4199-0.748-0.6934-1.3174-0.8203-1.709c-0.1279-0.3926-0.2559-1.0078-0.3828-1.8457    c-1.459,1.4033-2.9082,2.4063-4.3477,3.0078c-1.9688,0.8008-4.2568,1.2031-6.8633,1.2031c-3.4639,0-6.0938-0.8027-7.8887-2.4063    c-1.7959-1.6045-2.6934-3.582-2.6934-5.9336c0-2.2061,0.6465-4.0195,1.9414-5.4414c1.2939-1.4219,3.6816-2.4795,7.1641-3.1719    c4.1738-0.8389,6.8809-1.4268,8.1211-1.7637c1.2393-0.3379,2.5518-0.7793,3.9375-1.3262c0-1.3677-0.2832-2.3247-0.8477-2.8716    c-0.5654-0.5469-1.5586-0.8203-2.9805-0.8203c-1.8232,0-3.1904,0.292-4.1016,0.875    C187.6011,56.1035,187.0269,56.96,186.5894,58.2183z M196.2417,64.0698c-1.5313,0.5469-3.127,1.0293-4.7852,1.4492    c-2.2607,0.6016-3.6914,1.1934-4.293,1.7773c-0.6201,0.6016-0.9297,1.2852-0.9297,2.0508c0,0.875,0.3047,1.5898,0.916,2.1465    c0.6104,0.5557,1.5078,0.834,2.6934,0.834c1.2393,0,2.3926-0.3008,3.459-0.9023s1.8223-1.3359,2.2695-2.2012    c0.4463-0.8662,0.6699-1.9922,0.6699-3.377V64.0698z"/>
		<path d="M244.3667,37.7646v40.0864h-10.418v-4.293c-1.459,1.8223-2.7891,3.0527-3.9922,3.6914    c-1.6045,0.8379-3.3906,1.2578-5.3594,1.2578c-3.9561,0-6.9775-1.5039-9.0645-4.5117c-2.0879-3.0078-3.1309-6.6631-3.1309-10.9648    c0-4.8125,1.1523-8.4951,3.459-11.0474c2.3057-2.5518,5.2363-3.8281,8.791-3.8281c1.7314,0,3.3037,0.292,4.7168,0.875    c1.4121,0.5835,2.666,1.4585,3.7598,2.625V37.7646H244.3667z M233.2104,63.2495c0-2.2793-0.4834-3.9785-1.4492-5.0996    c-0.9668-1.1216-2.1875-1.6821-3.6641-1.6821c-1.2949,0-2.3789,0.5381-3.2539,1.6138c-0.875,1.0752-1.3125,2.8799-1.3125,5.4141    c0,2.3691,0.4512,4.1055,1.3535,5.209c0.9023,1.1025,2.0186,1.6543,3.3496,1.6543c1.4219,0,2.6064-0.5566,3.5547-1.668    C232.7358,67.5786,233.2104,65.7651,233.2104,63.2495z"/>
		<path d="M283.3862,66.0933h-22.3125c0.2002,1.7861,0.6836,3.1172,1.4492,3.9922c1.0752,1.2578,2.4785,1.8867,4.2109,1.8867    c1.0938,0,2.1328-0.2734,3.1172-0.8203c0.6016-0.3467,1.248-0.957,1.9414-1.832l10.9648,1.0117    c-1.6777,2.916-3.7012,5.0078-6.0703,6.2754c-2.3701,1.2656-5.7695,1.9004-10.1992,1.9004c-3.8467,0-6.873-0.543-9.0781-1.627    c-2.2061-1.085-4.0332-2.8076-5.4824-5.168c-1.4492-2.3613-2.1738-5.1367-2.1738-8.3262c0-4.5391,1.4531-8.2124,4.3613-11.02    c2.9072-2.8071,6.9219-4.2109,12.0449-4.2109c4.1563,0,7.4375,0.6289,9.8438,1.8867s4.2383,3.0811,5.4961,5.4688    c1.2578,2.3882,1.8867,5.4966,1.8867,9.3247V66.0933z M272.0659,60.7612c-0.2188-2.1514-0.7979-3.6919-1.7363-4.6216    c-0.9395-0.9297-2.1738-1.3945-3.7051-1.3945c-1.7686,0-3.1816,0.7021-4.2383,2.1055c-0.6748,0.8755-1.1035,2.1782-1.2852,3.9106    H272.0659z"/>
		<path d="M286.4214,37.7646h37.6523v9.8984h-12.6328v30.188h-12.3867v-30.188h-12.6328V37.7646z"/>
		<path d="M326.644,48.8115h10.418v4.7578c1.002-2.0596,2.0371-3.4771,3.1035-4.252c1.0664-0.7744,2.3828-1.1621,3.9512-1.1621    c1.6406,0,3.4355,0.5107,5.3867,1.5313l-3.4453,7.9302c-1.3125-0.5474-2.3516-0.8208-3.1172-0.8208    c-1.459,0-2.5889,0.6021-3.3906,1.8052c-1.1484,1.6953-1.7227,4.8672-1.7227,9.5156v9.7344H326.644V48.8115z"/>
		<path d="M362.4917,58.2183l-10.6367-1.1216c0.4004-1.8594,0.9795-3.3223,1.7363-4.3887c0.7559-1.0664,1.8457-1.9912,3.2676-2.7754    c1.0205-0.5649,2.4238-1.0024,4.2109-1.3125c1.7861-0.3096,3.7188-0.4648,5.7969-0.4648c3.3359,0,6.0156,0.187,8.0391,0.5605    c2.0234,0.374,3.709,1.1533,5.0586,2.3379c0.9473,0.8203,1.6958,1.9824,2.2427,3.4863s0.8203,2.9399,0.8203,4.3071v12.8242    c0,1.3672,0.0859,2.4375,0.2598,3.2129c0.1719,0.7744,0.5508,1.7637,1.1348,2.9668h-10.4458    c-0.4199-0.748-0.6934-1.3174-0.8203-1.709c-0.1279-0.3926-0.2559-1.0078-0.3828-1.8457    c-1.459,1.4033-2.9082,2.4063-4.3477,3.0078c-1.9688,0.8008-4.2568,1.2031-6.8633,1.2031c-3.4639,0-6.0938-0.8027-7.8887-2.4063    c-1.7959-1.6045-2.6934-3.582-2.6934-5.9336c0-2.2061,0.6465-4.0195,1.9414-5.4414c1.2939-1.4219,3.6816-2.4795,7.1641-3.1719    c4.1738-0.8389,6.8809-1.4268,8.1211-1.7637c1.2393-0.3379,2.5518-0.7793,3.9375-1.3262c0-1.3677-0.2832-2.3247-0.8477-2.8716    c-0.5654-0.5469-1.5586-0.8203-2.9805-0.8203c-1.8232,0-3.1904,0.292-4.1016,0.875    C363.5034,56.1035,362.9292,56.96,362.4917,58.2183z M372.144,64.0698c-1.5313,0.5469-3.127,1.0293-4.7852,1.4492    c-2.2607,0.6016-3.6914,1.1934-4.293,1.7773c-0.6201,0.6016-0.9297,1.2852-0.9297,2.0508c0,0.875,0.3047,1.5898,0.916,2.1465    c0.6104,0.5557,1.5078,0.834,2.6934,0.834c1.2393,0,2.3926-0.3008,3.459-0.9023s1.8223-1.3359,2.2695-2.2012    c0.4463-0.8662,0.6699-1.9922,0.6699-3.377V64.0698z"/>
		<path d="M411.3555,66.4761l10.582,1.2031c-0.584,2.2051-1.541,4.1152-2.8711,5.7285c-1.332,1.6133-3.0313,2.8662-5.0996,3.7598    c-2.0703,0.8926-4.6992,1.3398-7.8887,1.3398c-3.082,0-5.6465-0.2871-7.6973-0.8613c-2.0508-0.5732-3.8145-1.502-5.291-2.7861    s-2.6348-2.791-3.4727-4.5205c-0.8398-1.7305-1.2578-4.0254-1.2578-6.8848c0-2.9873,0.5098-5.4736,1.5313-7.459    c0.7461-1.457,1.7676-2.7632,3.0625-3.9199c1.293-1.1567,2.625-2.0171,3.9922-2.582c2.168-0.8921,4.9492-1.3384,8.3398-1.3384    c4.7383,0,8.3535,0.8477,10.8418,2.543s4.2324,4.1748,5.2363,7.438l-10.4727,1.3945c-0.3281-1.2402-0.9258-2.1738-1.791-2.8032    c-0.8672-0.6289-2.0293-0.9434-3.4863-0.9434c-1.8418,0-3.332,0.6597-4.4707,1.979c-1.1406,1.3193-1.709,3.3164-1.709,5.9912    c0,2.3838,0.5645,4.1943,1.6953,5.4316c1.1289,1.2373,2.5703,1.8564,4.3203,1.8564c1.457,0,2.6836-0.374,3.6777-1.1211    C410.1191,69.1733,410.8633,68.0249,411.3555,66.4761z"/>
		<path d="M426.0938,37.7646h11.375v20.6919l8.3125-9.645h13.6992l-10.418,10.1724l11.0195,18.8672H447.543l-5.8828-11.6406    l-4.1914,4.0938v7.5469h-11.375V37.7646z"/>
		<path d="M493.7695,66.0933H471.457c0.1992,1.7861,0.6836,3.1172,1.4492,3.9922c1.0742,1.2578,2.4785,1.8867,4.2109,1.8867    c1.0938,0,2.1328-0.2734,3.1172-0.8203c0.6016-0.3467,1.248-0.957,1.9414-1.832l10.9648,1.0117    c-1.6777,2.916-3.7012,5.0078-6.0703,6.2754c-2.3711,1.2656-5.7695,1.9004-10.1992,1.9004c-3.8477,0-6.873-0.543-9.0781-1.627    c-2.207-1.085-4.0332-2.8076-5.4824-5.168c-1.4492-2.3613-2.1738-5.1367-2.1738-8.3262c0-4.5391,1.4531-8.2124,4.3613-11.02    c2.9063-2.8071,6.9219-4.2109,12.0449-4.2109c4.1563,0,7.4375,0.6289,9.8438,1.8867s4.2383,3.0811,5.4961,5.4688    c1.2578,2.3882,1.8867,5.4966,1.8867,9.3247V66.0933z M482.4492,60.7612c-0.2188-2.1514-0.7988-3.6919-1.7363-4.6216    c-0.9395-0.9297-2.1738-1.3945-3.7051-1.3945c-1.7695,0-3.1816,0.7021-4.2383,2.1055c-0.6758,0.8755-1.1035,2.1782-1.2852,3.9106    H482.4492z"/>
		<path d="M498.9922,48.8115h10.418v4.7578c1.002-2.0596,2.0371-3.4771,3.1035-4.252c1.0664-0.7744,2.3828-1.1621,3.9512-1.1621    c1.6406,0,3.4355,0.5107,5.3867,1.5313l-3.4453,7.9302c-1.3125-0.5474-2.3516-0.8208-3.1172-0.8208    c-1.459,0-2.5898,0.6021-3.3906,1.8052c-1.1484,1.6953-1.7227,4.8672-1.7227,9.5156v9.7344h-11.1836V48.8115z"/>
		<path d="M522.6758,70.2808h8.0703v7.5703h-8.0703V70.2808z"/>
		<path d="M558.0488,66.4761l10.582,1.2031c-0.584,2.2051-1.541,4.1152-2.8711,5.7285c-1.332,1.6133-3.0313,2.8662-5.0996,3.7598    c-2.0703,0.8926-4.6992,1.3398-7.8887,1.3398c-3.082,0-5.6465-0.2871-7.6973-0.8613c-2.0508-0.5732-3.8145-1.502-5.291-2.7861    s-2.6348-2.791-3.4727-4.5205c-0.8398-1.7305-1.2578-4.0254-1.2578-6.8848c0-2.9873,0.5098-5.4736,1.5313-7.459    c0.7461-1.457,1.7676-2.7632,3.0625-3.9199c1.293-1.1567,2.625-2.0171,3.9922-2.582c2.168-0.8921,4.9492-1.3384,8.3398-1.3384    c4.7383,0,8.3535,0.8477,10.8418,2.543s4.2324,4.1748,5.2363,7.438l-10.4727,1.3945c-0.3281-1.2402-0.9258-2.1738-1.791-2.8032    c-0.8672-0.6289-2.0293-0.9434-3.4863-0.9434c-1.8418,0-3.332,0.6597-4.4707,1.979c-1.1406,1.3193-1.709,3.3164-1.709,5.9912    c0,2.3838,0.5645,4.1943,1.6953,5.4316c1.1289,1.2373,2.5703,1.8564,4.3203,1.8564c1.457,0,2.6836-0.374,3.6777-1.1211    C556.8125,69.1733,557.5566,68.0249,558.0488,66.4761z"/>
		<path d="M572.377,63.4136c0-4.4297,1.4941-8.0806,4.4844-10.9517c2.9883-2.8711,7.0273-4.3066,12.1133-4.3066    c5.8145,0,10.207,1.6865,13.1797,5.0586c2.3867,2.7163,3.582,6.061,3.582,10.0356c0,4.4658-1.4824,8.125-4.4434,10.9785    c-2.9629,2.8525-7.0605,4.2793-12.291,4.2793c-4.668,0-8.4414-1.1855-11.3203-3.5547    C574.1445,72.0171,572.377,68.1714,572.377,63.4136z M583.5332,63.3862c0,2.5879,0.5234,4.502,1.5723,5.7422    c1.0469,1.2393,2.3652,1.8594,3.9512,1.8594c1.6035,0,2.9199-0.6113,3.9512-1.832c1.0293-1.2217,1.5449-3.1816,1.5449-5.8789    c0-2.5156-0.5195-4.3887-1.5586-5.6191c-1.0391-1.231-2.3242-1.8462-3.8555-1.8462c-1.623,0-2.9629,0.6245-4.0195,1.8735    C584.0605,58.9331,583.5332,60.8335,583.5332,63.3862z"/>
		<path d="M611.1777,48.8115h10.3906v4.2383c1.4961-1.7681,3.0078-3.0259,4.5313-3.7734c1.5254-0.7471,3.3633-1.1211,5.5176-1.1211    c2.3184,0,4.1543,0.4102,5.5039,1.2305c1.3516,0.8203,2.457,2.042,3.3145,3.6641c1.7461-1.8955,3.3398-3.1855,4.7773-3.8691    c1.4395-0.6836,3.2129-1.0254,5.3262-1.0254c3.1133,0,5.543,0.9253,7.291,2.7754c1.7461,1.8506,2.6211,4.7441,2.6211,8.6821    v18.2383h-11.1563v-16.543c0-1.3125-0.2559-2.2881-0.7637-2.9258c-0.7441-1.0029-1.6719-1.5044-2.7793-1.5044    c-1.3086,0-2.3613,0.4741-3.1602,1.4224c-0.8008,0.9473-1.1992,2.4697-1.1992,4.5664v14.9844h-11.1563V61.855    c0-1.2764-0.0742-2.1426-0.2207-2.5977c-0.2383-0.7295-0.6484-1.3174-1.2344-1.7637c-0.5859-0.4468-1.2715-0.6704-2.0566-0.6704    c-1.2813,0-2.334,0.4834-3.1563,1.4497c-0.8242,0.9658-1.2344,2.5518-1.2344,4.7578v14.8203h-11.1563V48.8115z"/>
	</g>
	<line fill="none" x1="-7811" y1="57.5552" x2="8572" y2="57.5552"/>
</g>
<g id="Layer_2">
	<g>
		<path d="M410.1045,104.229c-0.335,1.2305-0.6494,2.9561-0.9434,5.1777l-0.2871,1.9385c-0.0479,0.2734-0.1748,0.5449-0.3799,0.8154    c-0.2051,0.2695-0.3926,0.4043-0.5635,0.4043c-0.2119,0-0.4531-0.1074-0.7227-0.3223c-0.2705-0.2158-0.4053-0.3887-0.4053-0.5176    c0-0.377,0.0859-0.8965,0.2559-1.5586c1.252-5.0518,1.877-9.4883,1.877-13.3105l-0.0098-0.8613    c-0.0137-0.7383,0.1152-1.2744,0.3887-1.6094s0.5879-0.502,0.9434-0.502c0.1641,0,0.3223,0.1279,0.4727,0.3838    c0.1504,0.2568,0.2246,0.6201,0.2246,1.0928c0,0.6631-0.0684,1.4658-0.2051,2.4092c-0.1777,1.1895-0.2695,1.873-0.2764,2.0508    c1.0186-1.7773,2.0986-3.165,3.2402-4.1631s2.2012-1.4971,3.1787-1.4971c0.6904,0,1.2734,0.2578,1.748,0.7744    c0.4746,0.5156,0.7129,1.1572,0.7129,1.9219c0,2.2295-0.8545,4.2529-2.5635,6.0703c-1.709,1.8193-3.374,2.7285-4.9932,2.7285    c-0.4043,0-0.7236-0.1035-0.959-0.3086C410.6016,105.1411,410.3574,104.769,410.1045,104.229z M416.4727,95.9751    c-0.9648,0-2.1572,0.9023-3.5791,2.707s-2.1328,3.209-2.1328,4.2139c0,0.2461,0.1396,0.4854,0.4209,0.7178    c0.2793,0.2324,0.6348,0.3486,1.0664,0.3486c0.9766,0,2.1016-0.7227,3.373-2.1689c1.2715-1.4453,1.9072-2.8652,1.9072-4.2598    c0-0.499-0.1006-0.8838-0.3027-1.1543C417.0234,96.1099,416.7734,95.9751,416.4727,95.9751z"/>
		<path d="M430.4785,101.9419c0,0.6973-0.6172,1.5391-1.8506,2.5234s-2.5068,1.4766-3.8193,1.4766    c-1.1006,0-1.9502-0.3252-2.5479-0.9746c-0.5986-0.6494-0.8975-1.5547-0.8975-2.7168c0-1.9551,0.6602-3.8145,1.9785-5.5781    c1.3203-1.7637,2.7617-2.6465,4.3281-2.6465c0.5117,0,0.9307,0.168,1.2559,0.5029c0.3242,0.335,0.4863,0.7383,0.4863,1.21    c0,1.0527-0.5156,2.0605-1.5479,3.0254c-1.0322,0.9629-2.4131,1.9102-4.1426,2.8398c-0.3555,0.1846-0.5332,0.4238-0.5332,0.7178    c0,0.5674,0.1641,1.0225,0.4922,1.3643s0.8135,0.5117,1.4561,0.5117c1.4697,0,2.9707-0.8125,4.502-2.4395    c0.2246-0.2266,0.3965-0.3389,0.5117-0.3389C430.3691,101.4194,430.4785,101.5942,430.4785,101.9419z M423.3525,100.3423    c2.8984-1.7227,4.3477-3.1064,4.3477-4.1523c0-0.4102-0.1846-0.6152-0.5537-0.6152c-0.6289,0-1.3379,0.4609-2.1279,1.3848    C424.2295,97.8813,423.6738,99.0103,423.3525,100.3423z"/>
		<path d="M434.6934,101.3481c0.0684-0.123,0.1504-0.2939,0.2461-0.5137c0.4648-1.0664,0.8926-1.9014,1.2813-2.5068    c0.3906-0.6045,0.8184-1.1846,1.2871-1.7373c0.4688-0.5547,0.8955-0.9746,1.2822-1.2617    c0.3857-0.2871,0.7363-0.4873,1.0508-0.5996c0.3145-0.1133,0.6182-0.1699,0.9131-0.1699c0.5938,0,1.0801,0.1797,1.4551,0.5391    c0.377,0.3584,0.5645,0.7773,0.5645,1.2559c0,0.2119-0.0664,0.4033-0.2002,0.5742c-0.1328,0.1709-0.3369,0.2559-0.6104,0.2559    c-0.2871,0-0.5498-0.126-0.7891-0.3789c-0.2461-0.2529-0.502-0.3789-0.7695-0.3789c-0.7109,0-1.6953,0.8613-2.9531,2.584    s-2.0234,3.6191-2.2969,5.6904c-0.0684,0.5332-0.1973,0.8848-0.3887,1.0557s-0.4619,0.2568-0.8105,0.2568    c-0.335,0-0.5781-0.25-0.7285-0.749c-0.1504-0.498-0.2246-1.3389-0.2246-2.5215c0-0.3213,0.0166-1.0293,0.0508-2.123    c0.041-1.292,0.123-2.334,0.2461-3.127c0.0205-0.1299,0.0547-0.4346,0.1025-0.9131c0.0479-0.5264,0.1074-0.8916,0.1797-1.0967    c0.0713-0.2051,0.2178-0.3965,0.4404-0.5742s0.4629-0.2676,0.7227-0.2676c0.2539,0,0.4434,0.0811,0.5693,0.2412    c0.126,0.1611,0.1904,0.333,0.1904,0.5186c0,0.2656-0.0684,0.6426-0.2051,1.127c-0.1582,0.541-0.25,0.9131-0.2773,1.1182    c-0.0205,0.2324-0.0586,0.4756-0.1133,0.7275c-0.0684,0.2949-0.1367,1.0664-0.2051,2.3184l-0.0098,0.3789V101.3481z"/>
		<path d="M445.9727,105.8901c-0.0479,0.1709-0.1777,0.3145-0.3896,0.4307s-0.4238,0.1738-0.6357,0.1738    c-0.6973,0-1.0459-0.5088-1.0459-1.5273c0-0.4854,0.1611-1.8594,0.4814-4.1221c0.1992-1.3877,0.2979-2.4404,0.2979-3.1582    c0-0.123-0.1436-0.2832-0.4307-0.4814c-0.2939-0.1914-0.4414-0.3799-0.4414-0.5645c0-0.2939,0.2227-0.6113,0.667-0.9531    c0.3418-0.2676,0.5518-0.5645,0.6309-0.8926c0.0781-0.3281,0.1689-0.7822,0.2715-1.3633c0.3486-2.1191,0.8936-3.6475,1.6357-4.584    c0.7412-0.9365,1.6865-1.4043,2.835-1.4043c0.6084,0,1.124,0.2061,1.5479,0.6201c0.4238,0.4131,0.6367,0.9277,0.6367,1.543    c0,0.499-0.1182,1.0645-0.3545,1.6973c-0.2354,0.6318-0.5039,0.9482-0.8047,0.9482c-0.2256,0-0.3389-0.1133-0.3389-0.3379    l0.0723-0.9951c0-1.3193-0.3691-1.9795-1.1074-1.9795c-0.7998,0-1.4629,0.7852-1.9893,2.3535    c-0.5264,1.5693-0.79,2.8457-0.79,3.8301c0,0.3145,0.2051,0.4717,0.6152,0.4717c1.7852,0,2.8359-0.0068,3.1533-0.0205    c0.3184-0.0137,0.4775,0.1201,0.4775,0.4004s-0.1738,0.4932-0.5186,0.6406c-0.3447,0.1465-1.0986,0.2783-2.2607,0.3945    c-0.9912,0.1025-1.5518,0.1885-1.6816,0.2559c-0.458,2.543-0.6875,4.8096-0.6875,6.7988c0,0.5947,0.0273,1.0352,0.082,1.3223    C445.9492,105.6548,445.9727,105.8218,445.9727,105.8901z"/>
		<path d="M454.75,105.9312c-0.9365,0-1.709-0.3555-2.3174-1.0664s-0.9131-1.5889-0.9131-2.6357    c0-1.7637,0.5938-3.501,1.7793-5.2139c1.1855-1.7119,2.6064-2.5684,4.2607-2.5684c1.0938,0,1.9805,0.4209,2.6611,1.2607    c0.6797,0.8418,1.0195,1.8428,1.0195,3.0049c0,1.7773-0.7021,3.4248-2.1064,4.9424    C457.7285,105.1724,456.2676,105.9312,454.75,105.9312z M453.3242,101.9634c0,0.6904,0.1455,1.2539,0.4365,1.6914    c0.29,0.4375,0.6748,0.6563,1.1533,0.6563c1.0186,0,2.041-0.5586,3.0664-1.6768c1.0254-1.1172,1.5371-2.3594,1.5371-3.7275    c0-0.8398-0.1963-1.5225-0.5889-2.0449c-0.3936-0.5234-0.9209-0.7852-1.585-0.7852c-1.0996,0-2.0449,0.6758-2.835,2.0254    C453.7197,99.4526,453.3242,100.7397,453.3242,101.9634z"/>
		<path d="M465.7012,101.3481c0.0684-0.123,0.1504-0.2939,0.2461-0.5137c0.4648-1.0664,0.8926-1.9014,1.2813-2.5068    c0.3906-0.6045,0.8184-1.1846,1.2871-1.7373c0.4688-0.5547,0.8955-0.9746,1.2822-1.2617    c0.3857-0.2871,0.7363-0.4873,1.0508-0.5996c0.3145-0.1133,0.6182-0.1699,0.9131-0.1699c0.5938,0,1.0801,0.1797,1.4551,0.5391    c0.377,0.3584,0.5645,0.7773,0.5645,1.2559c0,0.2119-0.0664,0.4033-0.2002,0.5742c-0.1328,0.1709-0.3369,0.2559-0.6104,0.2559    c-0.2871,0-0.5498-0.126-0.7891-0.3789c-0.2461-0.2529-0.502-0.3789-0.7695-0.3789c-0.7109,0-1.6953,0.8613-2.9531,2.584    s-2.0234,3.6191-2.2969,5.6904c-0.0684,0.5332-0.1973,0.8848-0.3887,1.0557s-0.4619,0.2568-0.8105,0.2568    c-0.335,0-0.5781-0.25-0.7285-0.749c-0.1504-0.498-0.2246-1.3389-0.2246-2.5215c0-0.3213,0.0166-1.0293,0.0508-2.123    c0.041-1.292,0.123-2.334,0.2461-3.127c0.0205-0.1299,0.0547-0.4346,0.1025-0.9131c0.0479-0.5264,0.1074-0.8916,0.1797-1.0967    c0.0713-0.2051,0.2178-0.3965,0.4404-0.5742s0.4629-0.2676,0.7227-0.2676c0.2539,0,0.4434,0.0811,0.5693,0.2412    c0.126,0.1611,0.1904,0.333,0.1904,0.5186c0,0.2656-0.0684,0.6426-0.2051,1.127c-0.1582,0.541-0.25,0.9131-0.2773,1.1182    c-0.0205,0.2324-0.0586,0.4756-0.1133,0.7275c-0.0684,0.2949-0.1367,1.0664-0.2051,2.3184l-0.0098,0.3789V101.3481z"/>
		<path d="M482.2715,97.3071c-0.6357,0.0146-1.9961,1.8975-4.0811,5.6504c-0.7041,1.2646-1.1143,1.9531-1.2305,2.0664    c-0.1162,0.1123-0.3301,0.2139-0.6406,0.3027c-0.3115,0.0889-0.5693,0.1328-0.7744,0.1328c-0.458,0-0.6875-0.8926-0.6875-2.6758    c0-1.0059,0.2158-2.8232,0.6465-5.4551c0.1777-1.0664,0.2666-1.8291,0.2666-2.2871c0-0.4512,0.2021-0.6768,0.6045-0.6768    c0.7598,0,1.1387,0.5469,1.1387,1.6406c0,0.5127-0.127,1.5176-0.3789,3.0146c-0.2949,1.709-0.4453,2.748-0.4512,3.1172    c0.4238-0.4102,1.0449-1.3086,1.8652-2.6973c1.1621-1.8994,2.0186-3.1045,2.5693-3.6143c0.5498-0.5088,1.1191-0.7637,1.707-0.7637    c0.4443,0,0.7979,0.2979,1.0615,0.8916c0.2627,0.5957,0.4219,2.0137,0.4766,4.2559c0.0137,0.5605,0.0645,0.9775,0.1543,1.251    c0.0879,0.2734,0.1533,0.4102,0.1943,0.4102c0.3213,0,1.0186-1.0938,2.0918-3.2813c0.5742-1.1553,1.1328-2.0332,1.6768-2.6357    c0.543-0.6006,1.1465-0.9023,1.8096-0.9023c0.5537,0,0.957,0.2861,1.21,0.8564c0.2529,0.5713,0.4336,1.417,0.543,2.5381    c0.1035,1.1348,0.2617,2.1738,0.4775,3.1172c0.2148,0.9434,0.6104,1.5488,1.1846,1.8145c0.3887,0.1855,0.584,0.4004,0.584,0.6465    c0,0.2393-0.1641,0.4854-0.4922,0.7383s-0.6289,0.3789-0.9023,0.3789c-0.5469,0-1.0352-0.334-1.4668-1.0039    c-0.4297-0.6699-0.7549-2.1191-0.9736-4.3477c-0.0957-0.8955-0.1885-1.5313-0.2764-1.9082    c-0.0898-0.375-0.2295-0.5635-0.4209-0.5635c-0.2871,0-0.627,0.2734-1.0205,0.8203c-0.3926,0.5469-1.0273,1.6582-1.9023,3.333    c-0.6836,1.3057-1.2012,2.1748-1.5527,2.6094c-0.3525,0.4336-0.6924,0.6504-1.0205,0.6504c-0.2939,0-0.5576-0.1172-0.79-0.3535    c-0.2324-0.2354-0.3789-0.5195-0.4404-0.8506c-0.0615-0.332-0.126-1.1465-0.1943-2.4463    C482.7324,98.9214,482.5449,97.6636,482.2715,97.3071z"/>
		<path d="M503.0254,101.686c-0.958,1.2852-1.9043,2.249-2.8408,2.8916s-1.7939,0.9639-2.5732,0.9639    c-0.5273,0-0.9814-0.2217-1.3643-0.666s-0.5742-1.0156-0.5742-1.7129c0-1.7979,0.8027-3.7344,2.4092-5.8086    c1.6064-2.0752,3.2031-3.1123,4.7891-3.1123c0.5742,0,1.001,0.3281,1.2813,0.9844c0.0889,0.2188,0.2295,0.3281,0.4209,0.3281    c0.5469,0,0.8203,0.2119,0.8203,0.6357c0,0.2119-0.0342,0.502-0.1025,0.8711c-0.3691,2.0176-0.5537,3.4395-0.5537,4.2656    c0,1.6553,0.3145,2.6465,0.9434,2.9746c0.3008,0.1641,0.4512,0.3652,0.4512,0.6045c0,0.2119-0.1475,0.4258-0.4404,0.6406    c-0.2949,0.2158-0.5781,0.3232-0.8516,0.3232c-0.5264,0-0.9609-0.3623-1.3027-1.0869S503.0254,103.0259,503.0254,101.686z     M502.3994,95.9126c-0.9023,0-1.9521,0.8467-3.1475,2.5381c-1.1973,1.6924-1.7949,3.0957-1.7949,4.21    c0,0.7861,0.2598,1.1787,0.7793,1.1787c0.752,0,1.7949-0.7588,3.127-2.2764c1.334-1.5176,2-2.9121,2-4.1836    C503.3633,96.4019,503.042,95.9126,502.3994,95.9126z"/>
		<path d="M515.4229,97.5337c-0.3555,0-0.7432,0.2324-1.1641,0.6973c-0.4199,0.4648-1.0615,1.5068-1.9229,3.127    c-1.1348,2.1738-1.8672,3.4111-2.1992,3.7119c-0.3311,0.3008-0.6064,0.4512-0.8252,0.4512c-0.8066,0-1.21-0.3896-1.21-1.1689    c0-0.3281,0.0547-0.793,0.1641-1.3945c0.376-2.0645,0.5645-4.2412,0.5645-6.5313c0-0.2598,0.1104-0.5488,0.333-0.8672    c0.2217-0.3174,0.4316-0.4766,0.6299-0.4766c0.3555,0,0.6084,0.1094,0.7598,0.3281c0.1494,0.2188,0.2246,0.6602,0.2246,1.3223    c0,0.6914-0.2051,2.1133-0.6152,4.2656c-0.1367,0.7119-0.2051,1.1631-0.2051,1.3535c0,0.1104,0.0273,0.1641,0.082,0.1641    c0.1035,0,0.5781-0.8164,1.4258-2.4502c0.8545-1.6611,1.6025-2.8301,2.2461-3.5068c0.6416-0.6768,1.3496-1.0156,2.1221-1.0156    c0.6152,0,1.1162,0.2813,1.502,0.8418c0.3867,0.5605,0.668,1.582,0.8467,3.0654c0.1904,1.6885,0.3633,2.7393,0.5176,3.1533    c0.1533,0.4131,0.3975,0.6201,0.7324,0.6201c0.2119,0,0.4785-0.0752,0.8008-0.2256c0.0537-0.0273,0.0947-0.041,0.123-0.041    c0.293,0,0.4404,0.1709,0.4404,0.5127c0,0.3008-0.2021,0.6201-0.6045,0.959c-0.4043,0.3379-0.8896,0.5068-1.457,0.5068    c-0.5811,0-1.0303-0.2305-1.3477-0.6914c-0.3184-0.4619-0.5693-1.6934-0.7539-3.6973    C516.4414,98.5376,516.0381,97.5337,515.4229,97.5337z"/>
		<path d="M525.1631,106.0024c-1.0254,0-1.8135-0.2939-2.3633-0.8809c-0.5508-0.5879-0.8252-1.4121-0.8252-2.4717    c0-1.7842,0.707-3.666,2.1221-5.6445c1.415-1.9795,2.7305-2.9688,3.9482-2.9688c0.5527,0,1.0303,0.2988,1.4297,0.8975    c0.4004,0.5977,0.5996,1.2324,0.5996,1.9023c0,0.4033-0.0869,0.75-0.2607,1.04c-0.1748,0.291-0.3506,0.4365-0.5283,0.4365    c-0.3965,0-0.6768-0.4004-0.8408-1.2002c-0.1846-0.8613-0.4512-1.292-0.7998-1.292c-0.7109,0-1.5518,0.8447-2.5225,2.5332    s-1.4561,3.1133-1.4561,4.2754s0.6592,1.7432,1.9785,1.7432c1.0059,0,2.1875-0.4717,3.5488-1.415    c0.4775-0.335,0.8301-0.502,1.0557-0.502c0.2324,0,0.3486,0.1328,0.3486,0.3994c0,0.5195-0.6123,1.1738-1.8359,1.9639    C527.5381,105.6079,526.3389,106.0024,525.1631,106.0024z"/>
		<path d="M541.7852,101.9419c0,0.6973-0.6162,1.5391-1.8506,2.5234c-1.2334,0.9844-2.5068,1.4766-3.8193,1.4766    c-1.1006,0-1.9502-0.3252-2.5479-0.9746c-0.5986-0.6494-0.8975-1.5547-0.8975-2.7168c0-1.9551,0.6592-3.8145,1.9785-5.5781    s2.7617-2.6465,4.3281-2.6465c0.5117,0,0.9307,0.168,1.2559,0.5029c0.3242,0.335,0.4863,0.7383,0.4863,1.21    c0,1.0527-0.5156,2.0605-1.5479,3.0254c-1.0322,0.9629-2.4131,1.9102-4.1426,2.8398c-0.3555,0.1846-0.5332,0.4238-0.5332,0.7178    c0,0.5674,0.1641,1.0225,0.4922,1.3643s0.8135,0.5117,1.4561,0.5117c1.4697,0,2.9697-0.8125,4.502-2.4395    c0.2246-0.2266,0.3955-0.3389,0.5117-0.3389C541.6758,101.4194,541.7852,101.5942,541.7852,101.9419z M534.6592,100.3423    c2.8984-1.7227,4.3477-3.1064,4.3477-4.1523c0-0.4102-0.1846-0.6152-0.5537-0.6152c-0.6289,0-1.3379,0.4609-2.1279,1.3848    C535.5361,97.8813,534.9805,99.0103,534.6592,100.3423z"/>
		<path d="M560.0684,97.3071c-0.6357,0.0146-1.9961,1.8975-4.0811,5.6504c-0.7041,1.2646-1.1143,1.9531-1.2305,2.0664    c-0.1162,0.1123-0.3301,0.2139-0.6406,0.3027c-0.3115,0.0889-0.5693,0.1328-0.7744,0.1328c-0.458,0-0.6875-0.8926-0.6875-2.6758    c0-1.0059,0.2158-2.8232,0.6465-5.4551c0.1777-1.0664,0.2666-1.8291,0.2666-2.2871c0-0.4512,0.2012-0.6768,0.6045-0.6768    c0.7598,0,1.1387,0.5469,1.1387,1.6406c0,0.5127-0.127,1.5176-0.3789,3.0146c-0.2949,1.709-0.4453,2.748-0.4512,3.1172    c0.4229-0.4102,1.0449-1.3086,1.8652-2.6973c1.1621-1.8994,2.0186-3.1045,2.5693-3.6143c0.5498-0.5088,1.1191-0.7637,1.707-0.7637    c0.4443,0,0.7979,0.2979,1.0615,0.8916c0.2627,0.5957,0.4219,2.0137,0.4766,4.2559c0.0137,0.5605,0.0645,0.9775,0.1543,1.251    c0.0879,0.2734,0.1533,0.4102,0.1943,0.4102c0.3213,0,1.0186-1.0938,2.0918-3.2813c0.5742-1.1553,1.1328-2.0332,1.6768-2.6357    c0.543-0.6006,1.1465-0.9023,1.8096-0.9023c0.5537,0,0.957,0.2861,1.21,0.8564c0.2529,0.5713,0.4336,1.417,0.543,2.5381    c0.1035,1.1348,0.2617,2.1738,0.4775,3.1172c0.2148,0.9434,0.6104,1.5488,1.1846,1.8145c0.3887,0.1855,0.584,0.4004,0.584,0.6465    c0,0.2393-0.1641,0.4854-0.4922,0.7383s-0.6289,0.3789-0.9023,0.3789c-0.5469,0-1.0352-0.334-1.4668-1.0039    c-0.4297-0.6699-0.7549-2.1191-0.9736-4.3477c-0.0957-0.8955-0.1885-1.5313-0.2764-1.9082    c-0.0898-0.375-0.2295-0.5635-0.4209-0.5635c-0.2871,0-0.627,0.2734-1.0205,0.8203c-0.3926,0.5469-1.0273,1.6582-1.9023,3.333    c-0.6836,1.3057-1.2012,2.1748-1.5527,2.6094c-0.3525,0.4336-0.6924,0.6504-1.0205,0.6504c-0.2939,0-0.5576-0.1172-0.79-0.3535    c-0.2324-0.2354-0.3789-0.5195-0.4404-0.8506c-0.0615-0.332-0.127-1.1465-0.1943-2.4463    C560.5293,98.9214,560.3418,97.6636,560.0684,97.3071z"/>
		<path d="M580.8223,101.686c-0.958,1.2852-1.9043,2.249-2.8408,2.8916s-1.7939,0.9639-2.5732,0.9639    c-0.5273,0-0.9814-0.2217-1.3643-0.666s-0.5742-1.0156-0.5742-1.7129c0-1.7979,0.8027-3.7344,2.4092-5.8086    c1.6064-2.0752,3.2031-3.1123,4.7891-3.1123c0.5742,0,1.001,0.3281,1.2813,0.9844c0.0889,0.2188,0.2295,0.3281,0.4209,0.3281    c0.5469,0,0.8203,0.2119,0.8203,0.6357c0,0.2119-0.0342,0.502-0.1025,0.8711c-0.3691,2.0176-0.5537,3.4395-0.5537,4.2656    c0,1.6553,0.3145,2.6465,0.9434,2.9746c0.3008,0.1641,0.4512,0.3652,0.4512,0.6045c0,0.2119-0.1475,0.4258-0.4404,0.6406    c-0.2949,0.2158-0.5781,0.3232-0.8516,0.3232c-0.5264,0-0.9609-0.3623-1.3027-1.0869S580.8223,103.0259,580.8223,101.686z     M580.1963,95.9126c-0.9023,0-1.9521,0.8467-3.1475,2.5381c-1.1973,1.6924-1.7949,3.0957-1.7949,4.21    c0,0.7861,0.2598,1.1787,0.7793,1.1787c0.752,0,1.7949-0.7588,3.127-2.2764c1.334-1.5176,2-2.9121,2-4.1836    C581.1602,96.4019,580.8389,95.9126,580.1963,95.9126z"/>
		<path d="M588.3066,101.3481c0.0684-0.123,0.1504-0.2939,0.2461-0.5137c0.4648-1.0664,0.8926-1.9014,1.2822-2.5068    c0.3896-0.6045,0.8184-1.1846,1.2871-1.7373c0.4678-0.5547,0.8955-0.9746,1.2813-1.2617    c0.3867-0.2871,0.7363-0.4873,1.0518-0.5996c0.3135-0.1133,0.6182-0.1699,0.9121-0.1699c0.5947,0,1.0801,0.1797,1.4561,0.5391    c0.376,0.3584,0.5635,0.7773,0.5635,1.2559c0,0.2119-0.0664,0.4033-0.1992,0.5742c-0.1338,0.1709-0.3369,0.2559-0.6104,0.2559    c-0.2871,0-0.5508-0.126-0.79-0.3789c-0.2461-0.2529-0.502-0.3789-0.7686-0.3789c-0.7109,0-1.6953,0.8613-2.9531,2.584    s-2.0234,3.6191-2.2969,5.6904c-0.0684,0.5332-0.1982,0.8848-0.3896,1.0557s-0.4609,0.2568-0.8105,0.2568    c-0.335,0-0.5771-0.25-0.7275-0.749c-0.1504-0.498-0.2256-1.3389-0.2256-2.5215c0-0.3213,0.0166-1.0293,0.0508-2.123    c0.041-1.292,0.123-2.334,0.2461-3.127c0.0215-0.1299,0.0547-0.4346,0.1035-0.9131c0.0469-0.5264,0.1074-0.8916,0.1787-1.0967    c0.0723-0.2051,0.2188-0.3965,0.4414-0.5742c0.2217-0.1777,0.4629-0.2676,0.7227-0.2676c0.2529,0,0.4424,0.0811,0.5693,0.2412    c0.126,0.1611,0.1895,0.333,0.1895,0.5186c0,0.2656-0.0684,0.6426-0.2051,1.127c-0.1572,0.541-0.25,0.9131-0.2773,1.1182    c-0.0195,0.2324-0.0576,0.4756-0.1123,0.7275c-0.0684,0.2949-0.1367,1.0664-0.2051,2.3184l-0.0107,0.3789V101.3481z"/>
		<path d="M599.2285,100.6294c0.0879-0.1152,0.7002-0.666,1.835-1.6504c1.0732-0.9365,1.8213-1.6162,2.2451-2.041    c1.5801-1.5781,2.7139-2.3682,3.4043-2.3682c0.5332,0,0.8008,0.2568,0.8008,0.7686c0,0.582-0.2637,1.0088-0.79,1.2822    c-0.6836,0.3486-1.5967,0.9277-2.7373,1.7383c-1.1426,0.8096-1.7129,1.3828-1.7129,1.7178c0,0.1367,0.4033,0.6475,1.21,1.5322    c0.8066,0.8857,1.5039,1.5381,2.0918,1.959c0.5879,0.4199,1.1592,0.6299,1.7119,0.6299l0.3389-0.0098    c0.2393-0.0137,0.3584,0.0918,0.3584,0.3184c0,0.3008-0.1875,0.6064-0.5635,0.917c-0.376,0.3115-0.8721,0.4668-1.4873,0.4668    c-0.3965,0-0.7979-0.1387-1.2041-0.415c-0.4072-0.2773-1.1299-1.0234-2.1689-2.2402c-0.8271-1.0059-1.3438-1.6055-1.5488-1.7998    c-0.2051-0.1953-0.376-0.292-0.5117-0.292c-0.0762,0-0.3154,0.1777-0.7188,0.5332s-0.623,0.625-0.6611,0.8096    c-0.0371,0.1846-0.0557,0.8887-0.0557,2.1123v0.4824c0,0.2529-0.1201,0.4775-0.3594,0.6758s-0.499,0.2979-0.7793,0.2979    c-0.2871,0-0.5127-0.084-0.6768-0.251c-0.1641-0.168-0.2461-0.3408-0.2461-0.5176c0-0.2461,0.0928-0.8271,0.2764-1.7441    c0.2598-1.3184,0.499-3.0859,0.7188-5.3008c0.5049-5.2295,0.8945-8.1875,1.168-8.875c0.2734-0.6865,0.6631-1.0303,1.1699-1.0303    c0.1768,0,0.3262,0.0957,0.4453,0.2871c0.1201,0.1914,0.1797,0.4375,0.1797,0.7383c0,0.5469-0.2363,1.999-0.707,4.3584    C599.7813,96.0845,599.4395,98.3882,599.2285,100.6294z"/>
		<path d="M618.4336,101.9419c0,0.6973-0.6172,1.5391-1.8516,2.5234c-1.2334,0.9844-2.5068,1.4766-3.8193,1.4766    c-1.1006,0-1.9502-0.3252-2.5479-0.9746c-0.5986-0.6494-0.8975-1.5547-0.8975-2.7168c0-1.9551,0.6592-3.8145,1.9795-5.5781    c1.3184-1.7637,2.7607-2.6465,4.3262-2.6465c0.5137,0,0.9316,0.168,1.2568,0.5029c0.3242,0.335,0.4873,0.7383,0.4873,1.21    c0,1.0527-0.5166,2.0605-1.5488,3.0254c-1.0322,0.9629-2.4131,1.9102-4.1426,2.8398c-0.3555,0.1846-0.5332,0.4238-0.5332,0.7178    c0,0.5674,0.1641,1.0225,0.4922,1.3643s0.8135,0.5117,1.4561,0.5117c1.4697,0,2.9697-0.8125,4.501-2.4395    c0.2266-0.2266,0.3965-0.3389,0.5137-0.3389C618.3232,101.4194,618.4336,101.5942,618.4336,101.9419z M611.3066,100.3423    c2.8984-1.7227,4.3477-3.1064,4.3477-4.1523c0-0.4102-0.1846-0.6152-0.5537-0.6152c-0.6289,0-1.3379,0.4609-2.1279,1.3848    C612.1836,97.8813,611.6279,99.0103,611.3066,100.3423z"/>
		<path d="M624.75,95.0728c0.7041-0.0547,1.3672-0.1201,1.9893-0.1953c0.6152-0.0684,1.1279-0.1025,1.5381-0.1025    c0.5195,0,0.8477,0.0479,0.9844,0.1436s0.2051,0.2637,0.2051,0.502c0,0.5547-0.3867,0.8555-1.1582,0.9023    c-0.9922,0.0625-1.9043,0.1475-2.7383,0.2568s-1.2832,0.2002-1.3486,0.2715c-0.0645,0.0723-0.2715,0.8857-0.6201,2.4404    c-0.3486,1.5557-0.5234,2.5654-0.5234,3.0303c0,0.752,0.0996,1.2529,0.2979,1.502c0.1982,0.25,0.4951,0.374,0.8916,0.374    c0.5879,0,1.4053-0.4404,2.4512-1.3223c0.4033-0.3623,0.7139-0.543,0.9336-0.543c0.293,0,0.4404,0.1572,0.4404,0.4707    c0,0.4922-0.4736,1.1299-1.4199,1.9131c-0.9473,0.7822-1.916,1.1738-2.9072,1.1738c-1.6543,0-2.4814-0.9736-2.4814-2.9229    c0-0.7031,0.1709-1.7939,0.5127-3.2705c0.335-1.4697,0.502-2.3516,0.502-2.6455c0-0.1025-0.082-0.1543-0.2461-0.1543    l-1.0664,0.0928c-0.875,0-1.3125-0.3486-1.3125-1.0459c0-0.3965,0.2021-0.5947,0.6055-0.5947h2.1123    c0.1436,0,0.2695-0.0645,0.3799-0.1943c0.1084-0.1299,0.2695-0.5664,0.4814-1.3076c0.2119-0.7422,0.3994-1.4746,0.5635-2.2002    c0.1641-0.7168,0.4854-1.0762,0.9648-1.0762c0.293,0,0.5225,0.1025,0.6865,0.3076s0.2461,0.3965,0.2461,0.5742    c0,0.0957-0.123,0.585-0.3691,1.4658L624.75,95.0728z"/>
		<path d="M632.3789,103.1421c0,0.5195,0.0723,1.1045,0.2148,1.7529c0.0273,0.123,0.041,0.2266,0.041,0.3086    c0,0.123-0.1123,0.2813-0.3379,0.4766c-0.2256,0.1943-0.4648,0.292-0.7178,0.292c-0.6631,0-0.9951-0.6084-0.9951-1.8252    c0-1.2578,0.2598-3.2471,0.7793-5.9678c0.1777-0.9502,0.2676-1.5342,0.2676-1.7529c0-0.4316,0.0781-0.7988,0.2354-1.1025    c0.1572-0.3047,0.3799-0.4561,0.667-0.4561c0.3477,0,0.623,0.083,0.8252,0.251c0.2012,0.167,0.3018,0.3535,0.3018,0.5586    s-0.0479,0.4756-0.1426,0.8096c-0.5137,1.8047-0.8311,3.0977-0.9541,3.877S632.3789,102.0688,632.3789,103.1421z M633.7227,91.688    c-0.1445,0-0.2539-0.1533-0.3281-0.4609c-0.0283-0.0957-0.0654-0.2012-0.1133-0.3184c-0.1846-0.4434-0.2773-0.8301-0.2773-1.1582    c0-0.2734,0.1631-0.5518,0.4873-0.8359c0.3252-0.2832,0.6855-0.4258,1.082-0.4258c0.1982,0,0.4209,0.0771,0.667,0.2314    c0.2461,0.1533,0.3691,0.3018,0.3691,0.4463c0,0.2246-0.084,0.6084-0.252,1.1484c-0.167,0.54-0.4336,0.9033-0.7998,1.0918    C634.1924,91.5942,633.9131,91.688,633.7227,91.688z"/>
		<path d="M643.4736,97.5337c-0.3555,0-0.7432,0.2324-1.1641,0.6973c-0.4199,0.4648-1.0615,1.5068-1.9229,3.127    c-1.1348,2.1738-1.8672,3.4111-2.1992,3.7119c-0.3311,0.3008-0.6064,0.4512-0.8252,0.4512c-0.8066,0-1.21-0.3896-1.21-1.1689    c0-0.3281,0.0547-0.793,0.1641-1.3945c0.376-2.0645,0.5645-4.2412,0.5645-6.5313c0-0.2598,0.1104-0.5488,0.333-0.8672    c0.2217-0.3174,0.4316-0.4766,0.6299-0.4766c0.3555,0,0.6084,0.1094,0.7598,0.3281c0.1494,0.2188,0.2246,0.6602,0.2246,1.3223    c0,0.6914-0.2051,2.1133-0.6152,4.2656c-0.1367,0.7119-0.2051,1.1631-0.2051,1.3535c0,0.1104,0.0273,0.1641,0.082,0.1641    c0.1035,0,0.5781-0.8164,1.4258-2.4502c0.8545-1.6611,1.6025-2.8301,2.2461-3.5068c0.6416-0.6768,1.3496-1.0156,2.1221-1.0156    c0.6152,0,1.1162,0.2813,1.502,0.8418c0.3867,0.5605,0.668,1.582,0.8467,3.0654c0.1904,1.6885,0.3633,2.7393,0.5176,3.1533    c0.1533,0.4131,0.3975,0.6201,0.7324,0.6201c0.2119,0,0.4785-0.0752,0.8008-0.2256c0.0537-0.0273,0.0947-0.041,0.123-0.041    c0.293,0,0.4404,0.1709,0.4404,0.5127c0,0.3008-0.2021,0.6201-0.6045,0.959c-0.4043,0.3379-0.8896,0.5068-1.457,0.5068    c-0.5811,0-1.0303-0.2305-1.3477-0.6914c-0.3184-0.4619-0.5693-1.6934-0.7539-3.6973    C644.4922,98.5376,644.0889,97.5337,643.4736,97.5337z"/>
		<path d="M657.6641,101.7065c-0.082-0.0615-0.3115,0.1299-0.6875,0.5742c-0.6221,0.7314-1.416,1.3809-2.3838,1.9482    c-0.9668,0.5674-1.8643,0.8516-2.6914,0.8516c-0.6152,0-1.0967-0.1934-1.4463-0.5801c-0.3477-0.3857-0.5225-0.9209-0.5225-1.6045    c0-1.0596,0.3994-2.2402,1.2002-3.543c0.7988-1.3018,1.9189-2.4385,3.3574-3.4092c1.4395-0.9707,2.6982-1.4561,3.7793-1.4561    c0.5664,0,1.0664,0.1641,1.4961,0.4922c0.1035,0.082,0.1914,0.1504,0.2676,0.2051c0.123,0.0889,0.2383,0.2686,0.3477,0.5381    c0.1094,0.2705,0.1641,0.4873,0.1641,0.6514c0,0.1025-0.0371,0.2598-0.1123,0.4717c-0.417,1.1348-0.7012,2.0752-0.8506,2.8203    c-0.1514,0.7451-0.3154,1.999-0.4922,3.7627c-0.1641,1.5859-0.3428,2.8057-0.5332,3.6611    c-0.1924,0.8535-0.5371,1.6816-1.0361,2.4805c-0.499,0.8008-1.0967,1.4004-1.7939,1.7998    c-0.6973,0.4004-1.416,0.6006-2.1543,0.6006c-1.2783,0-2.5391-0.4414-3.7832-1.3232s-1.8662-1.5889-1.8662-2.1221    c0-0.3359,0.127-0.5029,0.3799-0.5029c0.123,0,0.4883,0.2012,1.0967,0.6045c1.6064,1.0732,3.0518,1.6104,4.3369,1.6104    c1.1211,0,1.9746-0.5986,2.5586-1.7939c0.585-1.1973,0.9824-2.9844,1.1953-5.3633    C657.5371,102.5405,657.5957,102.0825,657.6641,101.7065z M657.6436,96.0767c-0.5811,0-1.3076,0.3018-2.1787,0.9023    c-0.8721,0.6025-1.7178,1.4844-2.5381,2.6465s-1.2305,2.1357-1.2305,2.9219c0,0.2666,0.084,0.4766,0.251,0.6309    c0.168,0.1533,0.3535,0.2305,0.5586,0.2305c0.6084,0,1.4033-0.3145,2.3848-0.9434c0.9805-0.6289,1.8252-1.502,2.5322-2.6201    c0.708-1.1172,1.0615-1.9941,1.0615-2.6299C658.4844,96.4565,658.2041,96.0767,657.6436,96.0767z"/>
	</g>
	<g>
		<path d="M676.2891,45.6592c0,1.3813-0.3457,2.668-1.0361,3.8604s-1.6318,2.1323-2.8242,2.8193    c-1.1924,0.6875-2.4795,1.0308-3.8604,1.0308c-1.375,0-2.6582-0.3433-3.8506-1.0308c-1.1924-0.687-2.1338-1.627-2.8242-2.8193    s-1.0361-2.479-1.0361-3.8604c0-1.3745,0.3457-2.6592,1.0361-3.8555c0.6904-1.1958,1.6318-2.1372,2.8242-2.8242    c1.1924-0.6875,2.4756-1.0308,3.8506-1.0308c1.3809,0,2.668,0.3433,3.8604,1.0308c1.1924,0.687,2.1338,1.6284,2.8242,2.8242    C675.9434,43,676.2891,44.2847,676.2891,45.6592z M674.793,45.6592c0-1.7178-0.6074-3.1846-1.8242-4.4009    c-1.2158-1.2158-2.6826-1.8242-4.4004-1.8242s-3.1855,0.6084-4.4014,1.8242c-1.2158,1.2163-1.8242,2.6831-1.8242,4.4009    s0.6084,3.1851,1.8242,4.4009c1.2158,1.2163,2.6836,1.8242,4.4014,1.8242s3.1846-0.6079,4.4004-1.8242    C674.1855,48.8442,674.793,47.377,674.793,45.6592z M665.0713,41.5361h3.6885c1.0449,0,1.8008,0.2104,2.2695,0.6318    c0.4678,0.4209,0.7021,0.9849,0.7021,1.6924c0,0.5527-0.1787,1.0308-0.5361,1.4351c-0.3564,0.4043-0.9189,0.6973-1.6875,0.8794    c0.3164,0.1211,0.5488,0.249,0.6973,0.3838c0.209,0.189,0.4277,0.4683,0.6572,0.8389c0.0137,0.0269,0.458,0.8218,1.334,2.3848    h-2.4258c-0.7881-1.5698-1.3174-2.5078-1.5859-2.8145c-0.2695-0.3062-0.5391-0.4595-0.8086-0.4595    c-0.0605,0-0.1455,0.0098-0.2529,0.0303v3.2437h-2.0518V41.5361z M667.123,45.0327h0.8896c0.5928,0,1.0098-0.0962,1.2529-0.2881    c0.2422-0.1919,0.3633-0.4395,0.3633-0.7427s-0.1162-0.5508-0.3486-0.7427c-0.2324-0.1924-0.6279-0.2881-1.1875-0.2881h-0.9697    V45.0327z"/>
	</g>
</g>
</svg>